<?xml version="1.0" standalone="no"?>
<!DOCTYPE svg PUBLIC "-//W3C//DTD SVG 20010904//EN"
 "http://www.w3.org/TR/2001/REC-SVG-20010904/DTD/svg10.dtd">
<svg version="1.0" xmlns="http://www.w3.org/2000/svg"
 width="512.000000pt" height="512.000000pt" viewBox="0 0 512.000000 512.000000"
 preserveAspectRatio="xMidYMid meet">
<metadata>
Created by potrace 1.14, written by Peter Selinger 2001-2017
</metadata>
<g transform="translate(0.000000,512.000000) scale(0.100000,-0.100000)"
fill="#000000" stroke="none">
<path d="M910 5104 c-83 -36 -122 -98 -126 -202 -1 -41 -5 -76 -8 -80 -4 -3
-97 -7 -209 -7 -125 -1 -219 -7 -247 -15 -152 -42 -275 -169 -309 -320 -14
-62 -14 -4078 0 -4140 17 -74 55 -146 105 -201 55 -58 106 -91 187 -118 56
-20 101 -20 2249 -20 1874 1 2201 3 2247 15 151 40 269 162 310 319 7 27 11
682 10 2075 0 2232 4 2089 -60 2194 -56 93 -144 160 -254 196 -27 9 -107 14
-250 15 l-209 1 -2 69 c-3 142 -70 223 -189 230 -58 4 -108 -14 -149 -53 -48
-45 -63 -94 -65 -217 l-1 -30 -1363 1 c-749 1 -1370 2 -1379 3 -14 1 -16 11
-14 57 5 99 -37 184 -108 220 -44 22 -124 26 -166 8z"/>
</g>
</svg>
